<?xml version="1.0" encoding="UTF-8" standalone="no"?>
<svg xmlns:svg="http://www.w3.org/2000/svg" xmlns="http://www.w3.org/2000/svg" viewBox="0 0 1124 794" height="794" width="1124" xml:space="preserve" version="1.1">
    <style type="text/css"><![CDATA[
        text {
            font-size: 100px;
            font-family: HelveticaNeue, Helvetica, sans-serif;
        }
    ]]></style>
    <g transform="matrix(1.3333333,0,0,-1.3333333,0,794)">
        <g transform="translate(184.4167,262.8569)">
            <text style="fill:#c40233" transform="scale(1,-1)">
                <tspan y="0" x="0">C</tspan>
            </text>
        </g>
        <g transform="translate(184.4167,262.8569)">
            <text style="fill:#ffd300" transform="matrix(1,0,0,-1,72.2,0)">
                <tspan y="0" x="0">D</tspan>
            </text>
        </g>
        <g transform="translate(184.4167,262.8569)">
            <text style="fill:#009f6b" transform="matrix(1,0,0,-1,144.4,0)">
                <tspan y="0" x="0">G</tspan>
            </text>
        </g>
        <g transform="translate(424.5218,262.8569)">
            <text style="fill:#000000" transform="scale(1,-1)">
                <tspan y="0" x="0 57.400002 113 174.10001">Labs</tspan>
            </text>
        </g>
        <g transform="matrix(1,0,0,-1,209.3486,391.6647)">
            <path style="fill:none;stroke:#64b3df;stroke-width:12" d="M 0,40.63271 C 48.05727,-8.005448 97.83395,-12.97798 149.33,25.71512 l 4.4912,3.98021"/>
        </g>
        <path style="fill:#64b3df" d="m 335.0256,356.4464 49.2491,-13.1807 -19.0049,47.3077 -6.5904,-24.6246 -23.6538,-9.5024 z"/>
        <g transform="matrix(1,0,0,-1,204.8587,250.2156)">
            <path style="fill:none;stroke:#64b3df;stroke-width:12" d="M 174.9261,7.766249 C 126.8688,56.40441 77.09211,61.37693 25.59604,22.68383 l -4.4912,-3.9802"/>
        </g>
        <path style="fill:#64b3df" d="m 254.1078,237.0349 -49.2491,13.1807 19.0049,-47.3076 6.5903,24.6245 23.6539,9.5024 z"/>
    </g>
</svg>
